# xmcd
#
# Track frame offsets:
#	150
#	13034
#	28960
#	45211
#	59261
#	72408
#	86365
#	102089
#	125046
#	142103
#	156424
#	180112
#	191176
#
# Disc length: 2836 seconds
# Revision: 1
# Processed by: cddbd v1.5.2PL0 Copyright (c) Steve Scherf et al.
# Submitted via: dBpowerAMP V12.0
#
DISCID=b10b120d
DTITLE=Billy Mata and The Texas Tradition - By Request
DYEAR=2012
DGENRE=Country
TTITLE0=Dev'lish Mary
TTITLE1=Corrine, Corrina
TTITLE2=To See An Angel Cry
TTITLE3=Bottle Bottle
TTITLE4=Honky-Tonk Stardust Cowboy
TTITLE5=Always Late
TTITLE6=Secret Love
TTITLE7=Mona Lisa
TTITLE8=Four or Five Times
TTITLE9=You Had a Call
TTITLE10=I Left My Heart in San Francisco
TTITLE11=Born to Love You
TTITLE12=Faded Love
EXTD=
EXTT0=
EXTT1=
EXTT2=
EXTT3=
EXTT4=
EXTT5=
EXTT6=
EXTT7=
EXTT8=
EXTT9=
EXTT10=
EXTT11=
EXTT12=
PLAYORDER=
